<svg id="Calque_1" data-name="Calque 1" xmlns="http://www.w3.org/2000/svg" viewBox="0 0 380 380">
  <g>
    <path d="M355.09,201.43a11.34,11.34,0,0,0-12.42,2.51l-74.12,74.62A11.39,11.39,0,0,0,276.63,298h74.12a11.4,11.4,0,0,0,11.38-11.39V212A11.36,11.36,0,0,0,355.09,201.43Zm-10.73,78.76H292l52.38-52.73Z" style="fill: #fff"/>
    <path d="M360.18,142.46l-84.7-84.71a13.62,13.62,0,0,0-19.25,0L190,124,123.78,57.74a13.62,13.62,0,0,0-19.25,0L33,129.29l-.35.33L19.88,142.39a13.62,13.62,0,0,0-.06,19.31L180.38,322.25a13.6,13.6,0,0,0,19.25,0L360.18,161.7A13.61,13.61,0,0,0,360.18,142.46ZM190,293.39,48.69,152.08l2.9-2.91.35-.33,62.21-62.22,66.23,66.22a13.62,13.62,0,0,0,19.25,0l66.22-66.22,65.46,65.46Z" style="fill: #fff"/>
  </g>
</svg>
