<svg id="Calque_1" data-name="Calque 1" xmlns="http://www.w3.org/2000/svg" viewBox="0 0 387.33 336.88"><defs><style>.cls-1{fill:#fff;}</style></defs><path class="cls-1" d="M377,283.88h-83.5a10,10,0,0,1-7.1-17.07l83.5-84.06A10,10,0,0,1,387,189.8v84.07A10,10,0,0,1,377,283.88Zm-59.44-20H367V214.09Z"/><path class="cls-1" d="M193.67,319.12a12.47,12.47,0,0,1-8.85-3.67L3.93,134.57A12.5,12.5,0,0,1,4,116.81l.08-.09,14.31-14.31.32-.31L99.36,21.43a12.52,12.52,0,0,1,17.71,0L193.67,98l76.61-76.6a12.49,12.49,0,0,1,8.85-3.67h0A12.51,12.51,0,0,1,288,21.43l95.43,95.44a12.52,12.52,0,0,1,0,17.7L202.52,315.45A12.45,12.45,0,0,1,193.67,319.12ZM30.48,125.72,193.67,288.9,356.86,125.72,279.13,48l-76.61,76.6a12.51,12.51,0,0,1-17.7,0L108.22,48l-72.09,72.1-.32.3Z"/></svg>