<svg xmlns="http://www.w3.org/2000/svg" viewBox="0 0 368 286.7"><defs><style>.cls-1{fill:#fff;}</style></defs><g id="Calque_2" data-name="Calque 2"><g id="Calque_1-2" data-name="Calque 1"><path class="cls-1" d="M358.44,253.18H279a9.53,9.53,0,0,1-6.76-16.24l79.44-80A9.53,9.53,0,0,1,368,163.67v80A9.52,9.52,0,0,1,358.44,253.18Zm-56.55-19.05h47V186.78Z"/><path class="cls-1" d="M184,286.7a11.87,11.87,0,0,1-8.42-3.49L3.49,111.13a11.91,11.91,0,0,1,0-16.9.6.6,0,0,0,.08-.08L17.24,80.53c.1-.1.2-.2.31-.29L94.28,3.49a11.91,11.91,0,0,1,16.85,0L184,76.37,256.88,3.49A11.91,11.91,0,0,1,265.3,0h0a11.91,11.91,0,0,1,8.42,3.49l90.79,90.8a11.91,11.91,0,0,1,0,16.84L192.43,283.21A11.88,11.88,0,0,1,184,286.7ZM28.75,102.7,184,258,339.25,102.7,265.3,28.75l-72.87,72.88a11.92,11.92,0,0,1-16.85,0L102.71,28.75,34.12,97.34l-.3.29Z"/></g></g></svg>